ffmpeg started on 2026-03-22 at 17:41:41
Report written to "D:\Convert\FFMetrics\reports\ssim_report-6.txt"
Log level: 32
Command line:
ffmpeg -hide_banner -nostdin -r 24000/1001 -i "F:\\Convert\\files\\[DC] Make Heroine ga Oosugiru - 07_Telegram_HEVC(241).mkv" -r 24000/1001 -i "F:\\Convert\\files\\[DC] Make Heroine ga Oosugiru - 07_Telegram.mp4" -lavfi "[0:v]settb=AVTB,setpts=PTS-STARTPTS,format=pix_fmts=yuv420p10le,fps=24000/1001,scale=1920:1080:flags=lanczos:param0=3:out_range=limited:out_color_matrix=bt709:out_chroma_loc=left,setsar=1/1,setdar=(1920/1080)*(1/1),colorspace=format=yuv420p10:range=tv:primaries=bt709:trc=bt709:space=bt709:fast=0[main];[1:v]settb=AVTB,setpts=PTS-STARTPTS,format=pix_fmts=yuv420p,fps=24000/1001,scale=1920:1080:flags=lanczos:param0=3:out_range=limited:out_color_matrix=bt709:out_chroma_loc=left,setsar=1.000,setdar=1.778,colorspace=format=yuv420p:range=tv:primaries=bt709:trc=bt709:space=bt709:fast=0[ref];[main][ref]ssim=eof_action=endall:stats_file='D\\:/Convert/FFMetrics/logs/ssim_logfile-6.txt'" -f null -
Input #0, matroska,webm, from 'F:\Convert\files\[DC] Make Heroine ga Oosugiru - 07_Telegram_HEVC(241).mkv':
  Metadata:
    COMPATIBLE_BRANDS: isomiso2avc1mp41
    MAJOR_BRAND     : isom
    MINOR_VERSION   : 512
    ENCODER         : Lavf61.7.100
  Duration: 00:24:06.79, start: -0.021000, bitrate: 1010 kb/s
  Stream #0:0: Video: hevc (Main 10), yuv420p10le(tv, bt709, progressive), 1920x1080 [SAR 1:1 DAR 16:9], 23.98 fps, 23.98 tbr, 1k tbn (default)
      Metadata:
        HANDLER_NAME    : VideoHandler
        VENDOR_ID       : [0][0][0][0]
        ENCODER         : Lavc61.19.100 libx265
        BPS             : 813383
        DURATION        : 00:24:06.569708333
        NUMBER_OF_FRAMES: 34683
        NUMBER_OF_BYTES : 147076896
        _STATISTICS_WRITING_APP: mkvpropedit v94.0 ('Initiate') 64-bit
        _STATISTICS_WRITING_DATE_UTC: 2026-03-21 15:17:48
        _STATISTICS_TAGS: BPS DURATION NUMBER_OF_FRAMES NUMBER_OF_BYTES
  Stream #0:1: Audio: aac (LC), 48000 Hz, stereo, fltp (default)
      Metadata:
        HANDLER_NAME    : SoundHandler
        VENDOR_ID       : [0][0][0][0]
        ENCODER         : Lavc61.19.100 aac
        BPS             : 193194
        DURATION        : 00:24:06.784000000
        NUMBER_OF_FRAMES: 67819
        NUMBER_OF_BYTES : 34938755
        _STATISTICS_WRITING_APP: mkvpropedit v94.0 ('Initiate') 64-bit
        _STATISTICS_WRITING_DATE_UTC: 2026-03-21 15:17:48
        _STATISTICS_TAGS: BPS DURATION NUMBER_OF_FRAMES NUMBER_OF_BYTES
Input #1, mov,mp4,m4a,3gp,3g2,mj2, from 'F:\Convert\files\[DC] Make Heroine ga Oosugiru - 07_Telegram.mp4':
  Metadata:
    major_brand     : isom
    minor_version   : 512
    compatible_brands: isomiso2avc1mp41
    encoder         : Lavf60.16.100
  Duration: 00:24:06.74, start: 0.000000, bitrate: 3764 kb/s
  Stream #1:0[0x1](und): Video: h264 (High) (avc1 / 0x31637661), yuv420p(tv, bt709, progressive), 1920x1080 [SAR 1:1 DAR 16:9], 3616 kb/s, 23.98 fps, 23.98 tbr, 24k tbn (default)
      Metadata:
        handler_name    : VideoHandler
        vendor_id       : [0][0][0][0]
        encoder         : Lavc60.31.102 h264_qsv
  Stream #1:1[0x2](und): Audio: aac (HE-AACv2) (mp4a / 0x6134706D), 48000 Hz, stereo, fltp, 144 kb/s (default)
      Metadata:
        handler_name    : SoundHandler
        vendor_id       : [0][0][0][0]
Stream mapping:
  Stream #0:0 (hevc) -> settb:default
  Stream #1:0 (h264) -> settb:default
  ssim:default -> Stream #0:0 (wrapped_avframe)
  Stream #0:1 -> #0:1 (aac (native) -> pcm_s16le (native))
Output #0, null, to 'pipe:':
  Metadata:
    COMPATIBLE_BRANDS: isomiso2avc1mp41
    MAJOR_BRAND     : isom
    MINOR_VERSION   : 512
    encoder         : Lavf61.7.100
  Stream #0:0: Video: wrapped_avframe, yuv420p10le(tv, bt709, progressive), 1920x1080 [SAR 1:1 DAR 16:9], q=2-31, 200 kb/s, 23.98 fps, 23.98 tbn
      Metadata:
        encoder         : Lavc61.19.100 wrapped_avframe
  Stream #0:1: Audio: pcm_s16le, 48000 Hz, stereo, s16, 1536 kb/s (default)
      Metadata:
        HANDLER_NAME    : SoundHandler
        VENDOR_ID       : [0][0][0][0]
        _STATISTICS_TAGS: BPS DURATION NUMBER_OF_FRAMES NUMBER_OF_BYTES
        BPS             : 193194
        DURATION        : 00:24:06.784000000
        NUMBER_OF_FRAMES: 67819
        NUMBER_OF_BYTES : 34938755
        _STATISTICS_WRITING_APP: mkvpropedit v94.0 ('Initiate') 64-bit
        _STATISTICS_WRITING_DATE_UTC: 2026-03-21 15:17:48
        encoder         : Lavc61.19.100 pcm_s16le
frame=  125 fps=0.0 q=-0.0 size=N/A time=00:00:05.21 bitrate=N/A speed=10.2x    frame=  313 fps=305 q=-0.0 size=N/A time=00:00:13.05 bitrate=N/A speed=12.7x    frame=  498 fps=324 q=-0.0 size=N/A time=00:00:20.77 bitrate=N/A speed=13.5x    frame=  695 fps=337 q=-0.0 size=N/A time=00:00:28.98 bitrate=N/A speed=14.1x    frame=  886 fps=344 q=-0.0 size=N/A time=00:00:36.95 bitrate=N/A speed=14.3x    frame= 1023 fps=331 q=-0.0 size=N/A time=00:00:42.66 bitrate=N/A speed=13.8x    frame= 1192 fps=330 q=-0.0 size=N/A time=00:00:49.71 bitrate=N/A speed=13.8x    frame= 1354 fps=328 q=-0.0 size=N/A time=00:00:56.47 bitrate=N/A speed=13.7x    frame= 1516 fps=327 q=-0.0 size=N/A time=00:01:03.22 bitrate=N/A speed=13.6x    frame= 1661 fps=323 q=-0.0 size=N/A time=00:01:09.27 bitrate=N/A speed=13.5x    frame= 1824 fps=322 q=-0.0 size=N/A time=00:01:16.07 bitrate=N/A speed=13.4x    frame= 1999 fps=323 q=-0.0 size=N/A time=00:01:23.37 bitrate=N/A speed=13.5x    frame= 2102 fps=314 q=-0.0 size=N/A time=00:01:27.67 bitrate=N/A speed=13.1x    frame= 2266 fps=314 q=-0.0 size=N/A time=00:01:34.51 bitrate=N/A speed=13.1x    frame= 2410 fps=312 q=-0.0 size=N/A time=00:01:40.51 bitrate=N/A speed=  13x    frame= 2549 fps=309 q=-0.0 size=N/A time=00:01:46.31 bitrate=N/A speed=12.9x    frame= 2718 fps=310 q=-0.0 size=N/A time=00:01:53.36 bitrate=N/A speed=12.9x    frame= 2895 fps=312 q=-0.0 size=N/A time=00:02:00.74 bitrate=N/A speed=  13x    frame= 3086 fps=315 q=-0.0 size=N/A time=00:02:08.71 bitrate=N/A speed=13.1x    frame= 3274 fps=317 q=-0.0 size=N/A time=00:02:16.55 bitrate=N/A speed=13.2x    frame= 3465 fps=320 q=-0.0 size=N/A time=00:02:24.51 bitrate=N/A speed=13.4x    frame= 3658 fps=323 q=-0.0 size=N/A time=00:02:32.56 bitrate=N/A speed=13.5x    frame= 3846 fps=325 q=-0.0 size=N/A time=00:02:40.41 bitrate=N/A speed=13.5x    frame= 4047 fps=327 q=-0.0 size=N/A time=00:02:48.79 bitrate=N/A speed=13.6x    frame= 4240 fps=329 q=-0.0 size=N/A time=00:02:56.84 bitrate=N/A speed=13.7x    frame= 4432 fps=331 q=-0.0 size=N/A time=00:03:04.85 bitrate=N/A speed=13.8x    frame= 4622 fps=332 q=-0.0 size=N/A time=00:03:12.77 bitrate=N/A speed=13.9x    frame= 4819 fps=334 q=-0.0 size=N/A time=00:03:20.99 bitrate=N/A speed=13.9x    frame= 5009 fps=335 q=-0.0 size=N/A time=00:03:28.91 bitrate=N/A speed=  14x    frame= 5196 fps=336 q=-0.0 size=N/A time=00:03:36.71 bitrate=N/A speed=  14x    frame= 5394 fps=337 q=-0.0 size=N/A time=00:03:44.97 bitrate=N/A speed=14.1x    frame= 5588 fps=339 q=-0.0 size=N/A time=00:03:53.06 bitrate=N/A speed=14.1x    frame= 5772 fps=339 q=-0.0 size=N/A time=00:04:00.74 bitrate=N/A speed=14.2x    frame= 5969 fps=341 q=-0.0 size=N/A time=00:04:08.95 bitrate=N/A speed=14.2x    frame= 6162 fps=341 q=-0.0 size=N/A time=00:04:17.00 bitrate=N/A speed=14.2x    frame= 6349 fps=342 q=-0.0 size=N/A time=00:04:24.80 bitrate=N/A speed=14.3x    frame= 6548 fps=343 q=-0.0 size=N/A time=00:04:33.10 bitrate=N/A speed=14.3x    frame= 6732 fps=344 q=-0.0 size=N/A time=00:04:40.78 bitrate=N/A speed=14.3x    frame= 6933 fps=345 q=-0.0 size=N/A time=00:04:49.16 bitrate=N/A speed=14.4x    frame= 7120 fps=345 q=-0.0 size=N/A time=00:04:56.96 bitrate=N/A speed=14.4x    frame= 7308 fps=346 q=-0.0 size=N/A time=00:05:04.80 bitrate=N/A speed=14.4x    frame= 7505 fps=346 q=-0.0 size=N/A time=00:05:13.02 bitrate=N/A speed=14.5x    frame= 7683 fps=347 q=-0.0 size=N/A time=00:05:20.44 bitrate=N/A speed=14.5x    frame= 7875 fps=347 q=-0.0 size=N/A time=00:05:28.45 bitrate=N/A speed=14.5x    frame= 8065 fps=348 q=-0.0 size=N/A time=00:05:36.37 bitrate=N/A speed=14.5x    frame= 8261 fps=348 q=-0.0 size=N/A time=00:05:44.55 bitrate=N/A speed=14.5x    frame= 8451 fps=349 q=-0.0 size=N/A time=00:05:52.47 bitrate=N/A speed=14.5x    frame= 8641 fps=349 q=-0.0 size=N/A time=00:06:00.40 bitrate=N/A speed=14.6x    frame= 8829 fps=350 q=-0.0 size=N/A time=00:06:08.24 bitrate=N/A speed=14.6x    frame= 9022 fps=350 q=-0.0 size=N/A time=00:06:16.29 bitrate=N/A speed=14.6x    frame= 9213 fps=350 q=-0.0 size=N/A time=00:06:24.25 bitrate=N/A speed=14.6x    frame= 9401 fps=351 q=-0.0 size=N/A time=00:06:32.10 bitrate=N/A speed=14.6x    frame= 9592 fps=351 q=-0.0 size=N/A time=00:06:40.06 bitrate=N/A speed=14.6x    frame= 9786 fps=351 q=-0.0 size=N/A time=00:06:48.15 bitrate=N/A speed=14.7x    frame= 9982 fps=352 q=-0.0 size=N/A time=00:06:56.33 bitrate=N/A speed=14.7x    frame=10171 fps=352 q=-0.0 size=N/A time=00:07:04.21 bitrate=N/A speed=14.7x    frame=10362 fps=353 q=-0.0 size=N/A time=00:07:12.18 bitrate=N/A speed=14.7x    frame=10548 fps=353 q=-0.0 size=N/A time=00:07:19.93 bitrate=N/A speed=14.7x    frame=10738 fps=353 q=-0.0 size=N/A time=00:07:27.86 bitrate=N/A speed=14.7x    frame=10931 fps=353 q=-0.0 size=N/A time=00:07:35.91 bitrate=N/A speed=14.7x    frame=11116 fps=353 q=-0.0 size=N/A time=00:07:43.62 bitrate=N/A speed=14.7x    frame=11309 fps=354 q=-0.0 size=N/A time=00:07:51.67 bitrate=N/A speed=14.8x    frame=11499 fps=354 q=-0.0 size=N/A time=00:07:59.60 bitrate=N/A speed=14.8x    frame=11690 fps=354 q=-0.0 size=N/A time=00:08:07.57 bitrate=N/A speed=14.8x    frame=11880 fps=355 q=-0.0 size=N/A time=00:08:15.49 bitrate=N/A speed=14.8x    frame=12077 fps=355 q=-0.0 size=N/A time=00:08:23.71 bitrate=N/A speed=14.8x    frame=12267 fps=355 q=-0.0 size=N/A time=00:08:31.63 bitrate=N/A speed=14.8x    frame=12459 fps=355 q=-0.0 size=N/A time=00:08:39.64 bitrate=N/A speed=14.8x    frame=12657 fps=356 q=-0.0 size=N/A time=00:08:47.90 bitrate=N/A speed=14.8x    frame=12851 fps=356 q=-0.0 size=N/A time=00:08:55.99 bitrate=N/A speed=14.8x    frame=13041 fps=356 q=-0.0 size=N/A time=00:09:03.91 bitrate=N/A speed=14.9x    frame=13239 fps=357 q=-0.0 size=N/A time=00:09:12.17 bitrate=N/A speed=14.9x    frame=13420 fps=356 q=-0.0 size=N/A time=00:09:19.72 bitrate=N/A speed=14.9x    frame=13619 fps=357 q=-0.0 size=N/A time=00:09:28.02 bitrate=N/A speed=14.9x    frame=13813 fps=357 q=-0.0 size=N/A time=00:09:36.11 bitrate=N/A speed=14.9x    frame=13999 fps=357 q=-0.0 size=N/A time=00:09:43.87 bitrate=N/A speed=14.9x    frame=14178 fps=357 q=-0.0 size=N/A time=00:09:51.34 bitrate=N/A speed=14.9x    frame=14376 fps=357 q=-0.0 size=N/A time=00:09:59.59 bitrate=N/A speed=14.9x    frame=14562 fps=357 q=-0.0 size=N/A time=00:10:07.35 bitrate=N/A speed=14.9x    frame=14752 fps=358 q=-0.0 size=N/A time=00:10:15.28 bitrate=N/A speed=14.9x    frame=14948 fps=358 q=-0.0 size=N/A time=00:10:23.45 bitrate=N/A speed=14.9x    frame=15119 fps=357 q=-0.0 size=N/A time=00:10:30.58 bitrate=N/A speed=14.9x    frame=15299 fps=357 q=-0.0 size=N/A time=00:10:38.09 bitrate=N/A speed=14.9x    frame=15491 fps=357 q=-0.0 size=N/A time=00:10:46.10 bitrate=N/A speed=14.9x    frame=15684 fps=358 q=-0.0 size=N/A time=00:10:54.15 bitrate=N/A speed=14.9x    frame=15873 fps=358 q=-0.0 size=N/A time=00:11:02.03 bitrate=N/A speed=14.9x    frame=16064 fps=358 q=-0.0 size=N/A time=00:11:10.00 bitrate=N/A speed=14.9x    frame=16257 fps=358 q=-0.0 size=N/A time=00:11:18.05 bitrate=N/A speed=14.9x    frame=16452 fps=358 q=-0.0 size=N/A time=00:11:26.18 bitrate=N/A speed=14.9x    frame=16643 fps=358 q=-0.0 size=N/A time=00:11:34.15 bitrate=N/A speed=14.9x    frame=16835 fps=359 q=-0.0 size=N/A time=00:11:42.15 bitrate=N/A speed=  15x    frame=17024 fps=359 q=-0.0 size=N/A time=00:11:50.04 bitrate=N/A speed=  15x    frame=17224 fps=359 q=-0.0 size=N/A time=00:11:58.38 bitrate=N/A speed=  15x    frame=17421 fps=359 q=-0.0 size=N/A time=00:12:06.60 bitrate=N/A speed=  15x    frame=17604 fps=359 q=-0.0 size=N/A time=00:12:14.23 bitrate=N/A speed=  15x    frame=17788 fps=359 q=-0.0 size=N/A time=00:12:21.90 bitrate=N/A speed=  15x    frame=17982 fps=359 q=-0.0 size=N/A time=00:12:29.99 bitrate=N/A speed=  15x    frame=18174 fps=359 q=-0.0 size=N/A time=00:12:38.00 bitrate=N/A speed=  15x    frame=18357 fps=359 q=-0.0 size=N/A time=00:12:45.63 bitrate=N/A speed=  15x    frame=18543 fps=359 q=-0.0 size=N/A time=00:12:53.39 bitrate=N/A speed=  15x    frame=18742 fps=360 q=-0.0 size=N/A time=00:13:01.69 bitrate=N/A speed=  15x    frame=18933 fps=360 q=-0.0 size=N/A time=00:13:09.66 bitrate=N/A speed=  15x    frame=19124 fps=360 q=-0.0 size=N/A time=00:13:17.63 bitrate=N/A speed=  15x    frame=19323 fps=360 q=-0.0 size=N/A time=00:13:25.93 bitrate=N/A speed=  15x    frame=19515 fps=360 q=-0.0 size=N/A time=00:13:33.93 bitrate=N/A speed=  15x    frame=19705 fps=360 q=-0.0 size=N/A time=00:13:41.86 bitrate=N/A speed=  15x    frame=19896 fps=360 q=-0.0 size=N/A time=00:13:49.82 bitrate=N/A speed=  15x    frame=20095 fps=361 q=-0.0 size=N/A time=00:13:58.12 bitrate=N/A speed=  15x    frame=20290 fps=361 q=-0.0 size=N/A time=00:14:06.26 bitrate=N/A speed=  15x    frame=20478 fps=361 q=-0.0 size=N/A time=00:14:14.10 bitrate=N/A speed=15.1x    frame=20654 fps=361 q=-0.0 size=N/A time=00:14:21.44 bitrate=N/A speed=  15x    frame=20852 fps=361 q=-0.0 size=N/A time=00:14:29.70 bitrate=N/A speed=15.1x    frame=21048 fps=361 q=-0.0 size=N/A time=00:14:37.87 bitrate=N/A speed=15.1x    frame=21241 fps=361 q=-0.0 size=N/A time=00:14:45.92 bitrate=N/A speed=15.1x    frame=21434 fps=361 q=-0.0 size=N/A time=00:14:53.97 bitrate=N/A speed=15.1x    frame=21622 fps=361 q=-0.0 size=N/A time=00:15:01.81 bitrate=N/A speed=15.1x    frame=21818 fps=361 q=-0.0 size=N/A time=00:15:09.99 bitrate=N/A speed=15.1x    frame=22007 fps=362 q=-0.0 size=N/A time=00:15:17.87 bitrate=N/A speed=15.1x    frame=22201 fps=362 q=-0.0 size=N/A time=00:15:25.96 bitrate=N/A speed=15.1x    frame=22392 fps=362 q=-0.0 size=N/A time=00:15:33.93 bitrate=N/A speed=15.1x    frame=22588 fps=362 q=-0.0 size=N/A time=00:15:42.10 bitrate=N/A speed=15.1x    frame=22779 fps=362 q=-0.0 size=N/A time=00:15:50.07 bitrate=N/A speed=15.1x    frame=22969 fps=362 q=-0.0 size=N/A time=00:15:57.99 bitrate=N/A speed=15.1x    frame=23164 fps=362 q=-0.0 size=N/A time=00:16:06.13 bitrate=N/A speed=15.1x    frame=23361 fps=362 q=-0.0 size=N/A time=00:16:14.34 bitrate=N/A speed=15.1x    frame=23556 fps=362 q=-0.0 size=N/A time=00:16:22.48 bitrate=N/A speed=15.1x    frame=23752 fps=362 q=-0.0 size=N/A time=00:16:30.65 bitrate=N/A speed=15.1x    frame=23941 fps=363 q=-0.0 size=N/A time=00:16:38.53 bitrate=N/A speed=15.1x    frame=24129 fps=363 q=-0.0 size=N/A time=00:16:46.38 bitrate=N/A speed=15.1x    frame=24328 fps=363 q=-0.0 size=N/A time=00:16:54.68 bitrate=N/A speed=15.1x    frame=24516 fps=363 q=-0.0 size=N/A time=00:17:02.52 bitrate=N/A speed=15.1x    frame=24709 fps=363 q=-0.0 size=N/A time=00:17:10.57 bitrate=N/A speed=15.1x    frame=24900 fps=363 q=-0.0 size=N/A time=00:17:18.53 bitrate=N/A speed=15.1x    frame=25097 fps=363 q=-0.0 size=N/A time=00:17:26.75 bitrate=N/A speed=15.1x    frame=25288 fps=363 q=-0.0 size=N/A time=00:17:34.72 bitrate=N/A speed=15.1x    frame=25481 fps=363 q=-0.0 size=N/A time=00:17:42.77 bitrate=N/A speed=15.1x    frame=25672 fps=363 q=-0.0 size=N/A time=00:17:50.73 bitrate=N/A speed=15.1x    frame=25865 fps=363 q=-0.0 size=N/A time=00:17:58.78 bitrate=N/A speed=15.2x    frame=26060 fps=363 q=-0.0 size=N/A time=00:18:06.91 bitrate=N/A speed=15.2x    frame=26261 fps=363 q=-0.0 size=N/A time=00:18:15.30 bitrate=N/A speed=15.2x    frame=26448 fps=363 q=-0.0 size=N/A time=00:18:23.10 bitrate=N/A speed=15.2x    frame=26641 fps=364 q=-0.0 size=N/A time=00:18:31.15 bitrate=N/A speed=15.2x    frame=26829 fps=364 q=-0.0 size=N/A time=00:18:38.99 bitrate=N/A speed=15.2x    frame=27024 fps=364 q=-0.0 size=N/A time=00:18:47.12 bitrate=N/A speed=15.2x    frame=27203 fps=364 q=-0.0 size=N/A time=00:18:54.59 bitrate=N/A speed=15.2x    frame=27394 fps=364 q=-0.0 size=N/A time=00:19:02.55 bitrate=N/A speed=15.2x    frame=27587 fps=364 q=-0.0 size=N/A time=00:19:10.60 bitrate=N/A speed=15.2x    frame=27776 fps=364 q=-0.0 size=N/A time=00:19:18.49 bitrate=N/A speed=15.2x    frame=27960 fps=364 q=-0.0 size=N/A time=00:19:26.16 bitrate=N/A speed=15.2x    frame=28153 fps=364 q=-0.0 size=N/A time=00:19:34.21 bitrate=N/A speed=15.2x    frame=28350 fps=364 q=-0.0 size=N/A time=00:19:42.43 bitrate=N/A speed=15.2x    frame=28538 fps=364 q=-0.0 size=N/A time=00:19:50.27 bitrate=N/A speed=15.2x    frame=28722 fps=364 q=-0.0 size=N/A time=00:19:57.94 bitrate=N/A speed=15.2x    frame=28900 fps=364 q=-0.0 size=N/A time=00:20:05.37 bitrate=N/A speed=15.2x    frame=29075 fps=364 q=-0.0 size=N/A time=00:20:12.66 bitrate=N/A speed=15.2x    frame=29261 fps=363 q=-0.0 size=N/A time=00:20:20.42 bitrate=N/A speed=15.2x    frame=29445 fps=363 q=-0.0 size=N/A time=00:20:28.10 bitrate=N/A speed=15.2x    frame=29619 fps=363 q=-0.0 size=N/A time=00:20:35.35 bitrate=N/A speed=15.2x    frame=29801 fps=363 q=-0.0 size=N/A time=00:20:42.95 bitrate=N/A speed=15.2x    frame=29983 fps=363 q=-0.0 size=N/A time=00:20:50.54 bitrate=N/A speed=15.1x    frame=30156 fps=363 q=-0.0 size=N/A time=00:20:57.75 bitrate=N/A speed=15.1x    frame=30343 fps=363 q=-0.0 size=N/A time=00:21:05.55 bitrate=N/A speed=15.1x    frame=30537 fps=363 q=-0.0 size=N/A time=00:21:13.64 bitrate=N/A speed=15.1x    frame=30723 fps=363 q=-0.0 size=N/A time=00:21:21.40 bitrate=N/A speed=15.1x    frame=30921 fps=363 q=-0.0 size=N/A time=00:21:29.66 bitrate=N/A speed=15.1x    frame=31112 fps=363 q=-0.0 size=N/A time=00:21:37.62 bitrate=N/A speed=15.2x    frame=31301 fps=363 q=-0.0 size=N/A time=00:21:45.51 bitrate=N/A speed=15.1x    frame=31486 fps=363 q=-0.0 size=N/A time=00:21:53.22 bitrate=N/A speed=15.1x    frame=31677 fps=363 q=-0.0 size=N/A time=00:22:01.19 bitrate=N/A speed=15.2x    frame=31862 fps=363 q=-0.0 size=N/A time=00:22:08.91 bitrate=N/A speed=15.2x    frame=32045 fps=363 q=-0.0 size=N/A time=00:22:16.54 bitrate=N/A speed=15.1x    frame=32239 fps=363 q=-0.0 size=N/A time=00:22:24.63 bitrate=N/A speed=15.2x    frame=32424 fps=363 q=-0.0 size=N/A time=00:22:32.35 bitrate=N/A speed=15.2x    frame=32615 fps=363 q=-0.0 size=N/A time=00:22:40.31 bitrate=N/A speed=15.2x    frame=32767 fps=363 q=-0.0 size=N/A time=00:22:46.65 bitrate=N/A speed=15.1x    frame=32938 fps=363 q=-0.0 size=N/A time=00:22:53.78 bitrate=N/A speed=15.1x    frame=33122 fps=363 q=-0.0 size=N/A time=00:23:01.46 bitrate=N/A speed=15.1x    frame=33302 fps=363 q=-0.0 size=N/A time=00:23:08.97 bitrate=N/A speed=15.1x    frame=33483 fps=363 q=-0.0 size=N/A time=00:23:16.52 bitrate=N/A speed=15.1x    frame=33640 fps=362 q=-0.0 size=N/A time=00:23:23.06 bitrate=N/A speed=15.1x    frame=33777 fps=362 q=-0.0 size=N/A time=00:23:28.78 bitrate=N/A speed=15.1x    frame=33913 fps=361 q=-0.0 size=N/A time=00:23:34.45 bitrate=N/A speed=15.1x    frame=34079 fps=361 q=-0.0 size=N/A time=00:23:41.37 bitrate=N/A speed=15.1x    frame=34249 fps=361 q=-0.0 size=N/A time=00:23:48.46 bitrate=N/A speed=  15x    frame=34380 fps=360 q=-0.0 size=N/A time=00:23:53.93 bitrate=N/A speed=  15x    frame=34541 fps=360 q=-0.0 size=N/A time=00:24:00.64 bitrate=N/A speed=  15x    [Parsed_ssim_16 @ 000001e7a9230000] SSIM Y:0.994249 (22.402287) U:0.993978 (22.202497) V:0.993584 (21.927142) All:0.994093 (22.286094)
[out#0/null @ 000001e79c05e740] video:14903KiB audio:271276KiB subtitle:0KiB other streams:0KiB global headers:0KiB muxing overhead: unknown
frame=34683 fps=360 q=-0.0 Lsize=N/A time=00:24:06.57 bitrate=N/A speed=  15x    
